<mxfile host="65bd71144e">
    <diagram id="AY4dc6e10sY11S_UekSg" name="Página-1">
        <mxGraphModel dx="704" dy="567" grid="1" gridSize="10" guides="1" tooltips="1" connect="1" arrows="1" fold="1" page="1" pageScale="1" pageWidth="4681" pageHeight="3300" math="0" shadow="0">
            <root>
                <mxCell id="0"/>
                <mxCell id="1" parent="0"/>
                <mxCell id="e9qLt4-oA66z_KBG-B5x-10" value="Jugadores" style="text;html=1;strokeColor=none;fillColor=none;align=center;verticalAlign=middle;whiteSpace=wrap;rounded=0;fontSize=15;" parent="1" vertex="1">
                    <mxGeometry x="680" y="170" width="75" height="20" as="geometry"/>
                </mxCell>
                <mxCell id="e9qLt4-oA66z_KBG-B5x-45" style="edgeStyle=orthogonalEdgeStyle;rounded=0;orthogonalLoop=1;jettySize=auto;html=1;exitX=1;exitY=0.5;exitDx=0;exitDy=0;entryX=0;entryY=0.5;entryDx=0;entryDy=0;fontSize=12;" parent="1" source="e9qLt4-oA66z_KBG-B5x-11" target="e9qLt4-oA66z_KBG-B5x-33" edge="1">
                    <mxGeometry relative="1" as="geometry"/>
                </mxCell>
                <mxCell id="e9qLt4-oA66z_KBG-B5x-46" style="edgeStyle=orthogonalEdgeStyle;rounded=0;orthogonalLoop=1;jettySize=auto;html=1;exitX=1;exitY=0.5;exitDx=0;exitDy=0;entryX=0;entryY=0.5;entryDx=0;entryDy=0;fontSize=12;" parent="1" source="e9qLt4-oA66z_KBG-B5x-11" target="e9qLt4-oA66z_KBG-B5x-35" edge="1">
                    <mxGeometry relative="1" as="geometry"/>
                </mxCell>
                <mxCell id="e9qLt4-oA66z_KBG-B5x-47" style="edgeStyle=orthogonalEdgeStyle;rounded=0;orthogonalLoop=1;jettySize=auto;html=1;exitX=1;exitY=0.5;exitDx=0;exitDy=0;entryX=0;entryY=0.5;entryDx=0;entryDy=0;fontSize=12;" parent="1" source="e9qLt4-oA66z_KBG-B5x-11" target="e9qLt4-oA66z_KBG-B5x-36" edge="1">
                    <mxGeometry relative="1" as="geometry"/>
                </mxCell>
                <mxCell id="e9qLt4-oA66z_KBG-B5x-48" style="edgeStyle=orthogonalEdgeStyle;rounded=0;orthogonalLoop=1;jettySize=auto;html=1;exitX=1;exitY=0.5;exitDx=0;exitDy=0;entryX=0;entryY=0.5;entryDx=0;entryDy=0;fontSize=12;" parent="1" source="e9qLt4-oA66z_KBG-B5x-11" target="e9qLt4-oA66z_KBG-B5x-37" edge="1">
                    <mxGeometry relative="1" as="geometry"/>
                </mxCell>
                <mxCell id="e9qLt4-oA66z_KBG-B5x-49" style="edgeStyle=orthogonalEdgeStyle;rounded=0;orthogonalLoop=1;jettySize=auto;html=1;exitX=1;exitY=0.5;exitDx=0;exitDy=0;entryX=0;entryY=0.5;entryDx=0;entryDy=0;fontSize=12;" parent="1" source="e9qLt4-oA66z_KBG-B5x-11" target="e9qLt4-oA66z_KBG-B5x-38" edge="1">
                    <mxGeometry relative="1" as="geometry"/>
                </mxCell>
                <mxCell id="e9qLt4-oA66z_KBG-B5x-50" style="edgeStyle=orthogonalEdgeStyle;rounded=0;orthogonalLoop=1;jettySize=auto;html=1;exitX=1;exitY=0.5;exitDx=0;exitDy=0;entryX=0;entryY=0.5;entryDx=0;entryDy=0;fontSize=12;" parent="1" source="e9qLt4-oA66z_KBG-B5x-11" target="e9qLt4-oA66z_KBG-B5x-39" edge="1">
                    <mxGeometry relative="1" as="geometry"/>
                </mxCell>
                <mxCell id="e9qLt4-oA66z_KBG-B5x-51" style="edgeStyle=orthogonalEdgeStyle;rounded=0;orthogonalLoop=1;jettySize=auto;html=1;exitX=1;exitY=0.5;exitDx=0;exitDy=0;entryX=0;entryY=0.5;entryDx=0;entryDy=0;fontSize=12;" parent="1" source="e9qLt4-oA66z_KBG-B5x-11" target="e9qLt4-oA66z_KBG-B5x-44" edge="1">
                    <mxGeometry relative="1" as="geometry"/>
                </mxCell>
                <mxCell id="e9qLt4-oA66z_KBG-B5x-11" value="Líder" style="rounded=0;whiteSpace=wrap;html=1;fontSize=15;fillColor=#dae8fc;strokeColor=#6c8ebf;" parent="1" vertex="1">
                    <mxGeometry x="160" y="675" width="120" height="40" as="geometry"/>
                </mxCell>
                <mxCell id="e9qLt4-oA66z_KBG-B5x-58" style="edgeStyle=orthogonalEdgeStyle;rounded=0;orthogonalLoop=1;jettySize=auto;html=1;exitX=1;exitY=0.5;exitDx=0;exitDy=0;entryX=0;entryY=0.5;entryDx=0;entryDy=0;fontSize=12;" parent="1" source="e9qLt4-oA66z_KBG-B5x-12" target="e9qLt4-oA66z_KBG-B5x-56" edge="1">
                    <mxGeometry relative="1" as="geometry"/>
                </mxCell>
                <mxCell id="e9qLt4-oA66z_KBG-B5x-62" style="edgeStyle=orthogonalEdgeStyle;rounded=0;orthogonalLoop=1;jettySize=auto;html=1;exitX=1;exitY=0.5;exitDx=0;exitDy=0;entryX=0;entryY=0.5;entryDx=0;entryDy=0;fontSize=12;" parent="1" source="e9qLt4-oA66z_KBG-B5x-12" target="e9qLt4-oA66z_KBG-B5x-55" edge="1">
                    <mxGeometry relative="1" as="geometry"/>
                </mxCell>
                <mxCell id="e9qLt4-oA66z_KBG-B5x-12" value="Pozo" style="rounded=0;whiteSpace=wrap;html=1;fontSize=15;fillColor=#d5e8d4;strokeColor=#82b366;" parent="1" vertex="1">
                    <mxGeometry x="160" y="900" width="120" height="40" as="geometry"/>
                </mxCell>
                <mxCell id="e9qLt4-oA66z_KBG-B5x-24" style="edgeStyle=orthogonalEdgeStyle;rounded=0;orthogonalLoop=1;jettySize=auto;html=1;exitX=1;exitY=0.5;exitDx=0;exitDy=0;entryX=0;entryY=0.5;entryDx=0;entryDy=0;fontSize=12;" parent="1" source="e9qLt4-oA66z_KBG-B5x-13" target="e9qLt4-oA66z_KBG-B5x-17" edge="1">
                    <mxGeometry relative="1" as="geometry"/>
                </mxCell>
                <mxCell id="e9qLt4-oA66z_KBG-B5x-27" style="edgeStyle=orthogonalEdgeStyle;rounded=0;orthogonalLoop=1;jettySize=auto;html=1;exitX=1;exitY=0.5;exitDx=0;exitDy=0;entryX=0;entryY=0.5;entryDx=0;entryDy=0;fontSize=12;" parent="1" source="e9qLt4-oA66z_KBG-B5x-13" target="e9qLt4-oA66z_KBG-B5x-25" edge="1">
                    <mxGeometry relative="1" as="geometry"/>
                </mxCell>
                <mxCell id="e9qLt4-oA66z_KBG-B5x-31" style="edgeStyle=orthogonalEdgeStyle;rounded=0;orthogonalLoop=1;jettySize=auto;html=1;exitX=1;exitY=0.5;exitDx=0;exitDy=0;fontSize=12;" parent="1" source="e9qLt4-oA66z_KBG-B5x-13" target="e9qLt4-oA66z_KBG-B5x-30" edge="1">
                    <mxGeometry relative="1" as="geometry"/>
                </mxCell>
                <mxCell id="e9qLt4-oA66z_KBG-B5x-32" style="edgeStyle=orthogonalEdgeStyle;rounded=0;orthogonalLoop=1;jettySize=auto;html=1;exitX=1;exitY=0.5;exitDx=0;exitDy=0;entryX=0;entryY=0.5;entryDx=0;entryDy=0;fontSize=12;" parent="1" source="e9qLt4-oA66z_KBG-B5x-13" target="e9qLt4-oA66z_KBG-B5x-29" edge="1">
                    <mxGeometry relative="1" as="geometry"/>
                </mxCell>
                <mxCell id="e9qLt4-oA66z_KBG-B5x-13" value="Jugador" style="rounded=0;whiteSpace=wrap;html=1;fontSize=15;fillColor=#ffe6cc;strokeColor=#d79b00;" parent="1" vertex="1">
                    <mxGeometry x="160" y="440" width="120" height="40" as="geometry"/>
                </mxCell>
                <mxCell id="e9qLt4-oA66z_KBG-B5x-60" style="edgeStyle=orthogonalEdgeStyle;rounded=0;orthogonalLoop=1;jettySize=auto;html=1;exitX=1;exitY=0.5;exitDx=0;exitDy=0;entryX=0;entryY=0.5;entryDx=0;entryDy=0;fontSize=12;" parent="1" source="e9qLt4-oA66z_KBG-B5x-14" target="e9qLt4-oA66z_KBG-B5x-59" edge="1">
                    <mxGeometry relative="1" as="geometry"/>
                </mxCell>
                <mxCell id="e9qLt4-oA66z_KBG-B5x-63" style="edgeStyle=orthogonalEdgeStyle;rounded=0;orthogonalLoop=1;jettySize=auto;html=1;exitX=1;exitY=0.5;exitDx=0;exitDy=0;fontSize=12;" parent="1" source="e9qLt4-oA66z_KBG-B5x-14" target="e9qLt4-oA66z_KBG-B5x-61" edge="1">
                    <mxGeometry relative="1" as="geometry"/>
                </mxCell>
                <mxCell id="e9qLt4-oA66z_KBG-B5x-14" value="NameNode" style="rounded=0;whiteSpace=wrap;html=1;fontSize=15;fillColor=#f8cecc;strokeColor=#b85450;" parent="1" vertex="1">
                    <mxGeometry x="160" y="1040" width="120" height="40" as="geometry"/>
                </mxCell>
                <mxCell id="e9qLt4-oA66z_KBG-B5x-68" style="edgeStyle=orthogonalEdgeStyle;rounded=0;orthogonalLoop=1;jettySize=auto;html=1;exitX=1;exitY=0.5;exitDx=0;exitDy=0;entryX=0;entryY=0.5;entryDx=0;entryDy=0;fontSize=12;" parent="1" source="e9qLt4-oA66z_KBG-B5x-15" target="e9qLt4-oA66z_KBG-B5x-66" edge="1">
                    <mxGeometry relative="1" as="geometry"/>
                </mxCell>
                <mxCell id="e9qLt4-oA66z_KBG-B5x-69" style="edgeStyle=orthogonalEdgeStyle;rounded=0;orthogonalLoop=1;jettySize=auto;html=1;exitX=1;exitY=0.5;exitDx=0;exitDy=0;entryX=0;entryY=0.5;entryDx=0;entryDy=0;fontSize=12;" parent="1" source="e9qLt4-oA66z_KBG-B5x-15" target="e9qLt4-oA66z_KBG-B5x-67" edge="1">
                    <mxGeometry relative="1" as="geometry"/>
                </mxCell>
                <mxCell id="e9qLt4-oA66z_KBG-B5x-15" value="DataNode" style="rounded=0;whiteSpace=wrap;html=1;fontSize=15;fillColor=#e1d5e7;strokeColor=#9673a6;" parent="1" vertex="1">
                    <mxGeometry x="160" y="1140" width="120" height="40" as="geometry"/>
                </mxCell>
                <mxCell id="e9qLt4-oA66z_KBG-B5x-17" value="Enviar la petición para unirse al juego" style="rounded=0;whiteSpace=wrap;html=1;fontSize=12;align=left;fillColor=#dae8fc;strokeColor=#6c8ebf;fontStyle=2" parent="1" vertex="1">
                    <mxGeometry x="360" y="380" width="280" height="30" as="geometry"/>
                </mxCell>
                <mxCell id="e9qLt4-oA66z_KBG-B5x-19" value="x16" style="text;html=1;strokeColor=none;fillColor=none;align=center;verticalAlign=middle;whiteSpace=wrap;rounded=0;fontSize=12;fontStyle=1" parent="1" vertex="1">
                    <mxGeometry x="160" y="440" width="20" height="20" as="geometry"/>
                </mxCell>
                <mxCell id="e9qLt4-oA66z_KBG-B5x-20" value="x1" style="text;html=1;strokeColor=none;fillColor=none;align=center;verticalAlign=middle;whiteSpace=wrap;rounded=0;fontSize=12;fontStyle=1" parent="1" vertex="1">
                    <mxGeometry x="160" y="675" width="20" height="20" as="geometry"/>
                </mxCell>
                <mxCell id="e9qLt4-oA66z_KBG-B5x-21" value="x1" style="text;html=1;strokeColor=none;fillColor=none;align=center;verticalAlign=middle;whiteSpace=wrap;rounded=0;fontSize=12;fontStyle=1" parent="1" vertex="1">
                    <mxGeometry x="160" y="900" width="20" height="20" as="geometry"/>
                </mxCell>
                <mxCell id="e9qLt4-oA66z_KBG-B5x-22" value="x1" style="text;html=1;strokeColor=none;fillColor=none;align=center;verticalAlign=middle;whiteSpace=wrap;rounded=0;fontSize=12;fontStyle=1" parent="1" vertex="1">
                    <mxGeometry x="160" y="1040" width="20" height="20" as="geometry"/>
                </mxCell>
                <mxCell id="e9qLt4-oA66z_KBG-B5x-23" value="x3" style="text;html=1;strokeColor=none;fillColor=none;align=center;verticalAlign=middle;whiteSpace=wrap;rounded=0;fontSize=12;fontStyle=1" parent="1" vertex="1">
                    <mxGeometry x="160" y="1140" width="20" height="20" as="geometry"/>
                </mxCell>
                <mxCell id="e9qLt4-oA66z_KBG-B5x-25" value="Enviar sus jugadas en cada ronda de cada etapa" style="rounded=0;whiteSpace=wrap;html=1;fontSize=12;align=left;fillColor=#e1d5e7;strokeColor=#9673a6;fontStyle=2" parent="1" vertex="1">
                    <mxGeometry x="360" y="420" width="280" height="30" as="geometry"/>
                </mxCell>
                <mxCell id="e9qLt4-oA66z_KBG-B5x-29" value="Una vez eliminado debe finalizar el proceso" style="rounded=0;whiteSpace=wrap;html=1;fontSize=12;align=left;fillColor=#ffe6cc;strokeColor=#d79b00;" parent="1" vertex="1">
                    <mxGeometry x="360" y="500" width="280" height="30" as="geometry"/>
                </mxCell>
                <mxCell id="e9qLt4-oA66z_KBG-B5x-30" value="Pedir ver el monto acumulado en el pozo" style="rounded=0;whiteSpace=wrap;html=1;fontSize=12;align=left;fillColor=#d5e8d4;strokeColor=#82b366;" parent="1" vertex="1">
                    <mxGeometry x="360" y="460" width="280" height="30" as="geometry"/>
                </mxCell>
                <mxCell id="e9qLt4-oA66z_KBG-B5x-33" value="Disponer de una interfaz por consola" style="rounded=0;whiteSpace=wrap;html=1;fontSize=12;align=left;fillColor=#dae8fc;strokeColor=#6c8ebf;" parent="1" vertex="1">
                    <mxGeometry x="360" y="560" width="280" height="30" as="geometry"/>
                </mxCell>
                <mxCell id="e9qLt4-oA66z_KBG-B5x-35" value="Mostrar-c cada vez que muere un jugador" style="rounded=0;whiteSpace=wrap;html=1;fontSize=12;align=left;fillColor=#ffe6cc;strokeColor=#d79b00;" parent="1" vertex="1">
                    <mxGeometry x="360" y="600" width="280" height="30" as="geometry"/>
                </mxCell>
                <mxCell id="e9qLt4-oA66z_KBG-B5x-36" value="Mostrar-c jugadores vivos al termino de cada juego" style="rounded=0;whiteSpace=wrap;html=1;fontSize=12;align=left;fillColor=#ffe6cc;strokeColor=#d79b00;" parent="1" vertex="1">
                    <mxGeometry x="360" y="640" width="280" height="30" as="geometry"/>
                </mxCell>
                <mxCell id="e9qLt4-oA66z_KBG-B5x-37" value="Mostrar-c ganador(es) del juego calamar" style="rounded=0;whiteSpace=wrap;html=1;fontSize=12;align=left;fillColor=#ffe6cc;strokeColor=#d79b00;" parent="1" vertex="1">
                    <mxGeometry x="360" y="680" width="280" height="30" as="geometry"/>
                </mxCell>
                <mxCell id="e9qLt4-oA66z_KBG-B5x-38" value="Mediante interfaz permite preguntar sobre las jugadas de todas las rondas de un jugador" style="rounded=0;whiteSpace=wrap;html=1;fontSize=12;align=left;fillColor=#a20025;strokeColor=#6F0000;fontColor=#ffffff;" parent="1" vertex="1">
                    <mxGeometry x="360" y="720" width="280" height="30" as="geometry"/>
                </mxCell>
                <mxCell id="e9qLt4-oA66z_KBG-B5x-42" style="edgeStyle=orthogonalEdgeStyle;rounded=0;orthogonalLoop=1;jettySize=auto;html=1;entryX=0;entryY=0.5;entryDx=0;entryDy=0;fontSize=12;" parent="1" source="e9qLt4-oA66z_KBG-B5x-39" target="e9qLt4-oA66z_KBG-B5x-40" edge="1">
                    <mxGeometry relative="1" as="geometry"/>
                </mxCell>
                <mxCell id="e9qLt4-oA66z_KBG-B5x-43" style="edgeStyle=orthogonalEdgeStyle;rounded=0;orthogonalLoop=1;jettySize=auto;html=1;entryX=0;entryY=0.5;entryDx=0;entryDy=0;fontSize=12;" parent="1" source="e9qLt4-oA66z_KBG-B5x-39" target="e9qLt4-oA66z_KBG-B5x-41" edge="1">
                    <mxGeometry relative="1" as="geometry"/>
                </mxCell>
                <mxCell id="e9qLt4-oA66z_KBG-B5x-39" value="Verificar si un jugador es eliminado" style="rounded=0;whiteSpace=wrap;html=1;fontSize=12;align=left;fillColor=#dae8fc;strokeColor=#6c8ebf;" parent="1" vertex="1">
                    <mxGeometry x="360" y="760" width="280" height="30" as="geometry"/>
                </mxCell>
                <mxCell id="e9qLt4-oA66z_KBG-B5x-40" value="Enviar dato al jugador" style="rounded=0;whiteSpace=wrap;html=1;fontSize=12;align=left;fillColor=#ffe6cc;strokeColor=#d79b00;" parent="1" vertex="1">
                    <mxGeometry x="680" y="740" width="280" height="30" as="geometry"/>
                </mxCell>
                <mxCell id="e9qLt4-oA66z_KBG-B5x-41" value="Enviar dato al pozo" style="rounded=0;whiteSpace=wrap;html=1;fontSize=12;align=left;fillColor=#d5e8d4;strokeColor=#82b366;fontStyle=1" parent="1" vertex="1">
                    <mxGeometry x="680" y="780" width="280" height="30" as="geometry"/>
                </mxCell>
                <mxCell id="e9qLt4-oA66z_KBG-B5x-44" value="Enviar todas las jugadas de todos los jugadores al NameNode" style="rounded=0;whiteSpace=wrap;html=1;fontSize=12;align=left;fillColor=#f8cecc;strokeColor=#b85450;fontStyle=2" parent="1" vertex="1">
                    <mxGeometry x="360" y="800" width="280" height="30" as="geometry"/>
                </mxCell>
                <mxCell id="e9qLt4-oA66z_KBG-B5x-52" value="RabbitMQ: Asíncrono" style="text;html=1;strokeColor=none;fillColor=none;align=left;verticalAlign=middle;whiteSpace=wrap;rounded=0;fontSize=12;fontStyle=1" parent="1" vertex="1">
                    <mxGeometry x="760" y="400" width="140" height="20" as="geometry"/>
                </mxCell>
                <mxCell id="e9qLt4-oA66z_KBG-B5x-53" value="gRPC: Síncrono" style="text;html=1;strokeColor=none;fillColor=none;align=left;verticalAlign=middle;whiteSpace=wrap;rounded=0;fontSize=12;fontStyle=2" parent="1" vertex="1">
                    <mxGeometry x="760" y="420" width="130" height="20" as="geometry"/>
                </mxCell>
                <mxCell id="e9qLt4-oA66z_KBG-B5x-55" value="Registrar cada uno de los jugadores eliminados con el formato establecido en archivo .txt" style="rounded=0;whiteSpace=wrap;html=1;fontSize=12;align=left;fontStyle=1;fillColor=#d5e8d4;strokeColor=default;strokeWidth=3;" parent="1" vertex="1">
                    <mxGeometry x="360" y="880" width="280" height="30" as="geometry"/>
                </mxCell>
                <mxCell id="e9qLt4-oA66z_KBG-B5x-56" value="&lt;b&gt;SendMount:&lt;/b&gt;&amp;nbsp;Enviar el monto actual acumulado cuando sea solicitado" style="rounded=0;whiteSpace=wrap;html=1;fontSize=12;align=left;fontStyle=2;fillColor=#d5e8d4;strokeColor=default;strokeWidth=3;" parent="1" vertex="1">
                    <mxGeometry x="360" y="930" width="280" height="30" as="geometry"/>
                </mxCell>
                <mxCell id="e9qLt4-oA66z_KBG-B5x-59" value="Distribuir aleatoriamente los registros de jugadas de cada ronda entre los 3 DataNode" style="rounded=0;whiteSpace=wrap;html=1;fontSize=12;align=left;fontStyle=2;fillColor=#e1d5e7;strokeColor=#9673a6;" parent="1" vertex="1">
                    <mxGeometry x="360" y="1000" width="280" height="30" as="geometry"/>
                </mxCell>
                <mxCell id="e9qLt4-oA66z_KBG-B5x-65" style="edgeStyle=orthogonalEdgeStyle;rounded=0;orthogonalLoop=1;jettySize=auto;html=1;exitX=1;exitY=0.5;exitDx=0;exitDy=0;entryX=0;entryY=0.5;entryDx=0;entryDy=0;fontSize=12;" parent="1" source="e9qLt4-oA66z_KBG-B5x-61" target="e9qLt4-oA66z_KBG-B5x-64" edge="1">
                    <mxGeometry relative="1" as="geometry"/>
                </mxCell>
                <mxCell id="e9qLt4-oA66z_KBG-B5x-61" value="Registrar en un archivo .txt las jugadas de cada jugador con el ip del DataNode" style="rounded=0;whiteSpace=wrap;html=1;fontSize=12;align=left;fontStyle=0;fillColor=#f8cecc;strokeColor=#b85450;" parent="1" vertex="1">
                    <mxGeometry x="360" y="1050" width="280" height="30" as="geometry"/>
                </mxCell>
                <mxCell id="e9qLt4-oA66z_KBG-B5x-64" value="Permite ver las jugadas almacenadas" style="rounded=0;whiteSpace=wrap;html=1;fontSize=12;align=left;fontStyle=2;fillColor=#f8cecc;strokeColor=#b85450;" parent="1" vertex="1">
                    <mxGeometry x="680" y="1050" width="280" height="30" as="geometry"/>
                </mxCell>
                <mxCell id="e9qLt4-oA66z_KBG-B5x-66" value="Crear un archivo .txt con el nro del jugador y ronda" style="rounded=0;whiteSpace=wrap;html=1;fontSize=12;align=left;fontStyle=0;fillColor=#e1d5e7;strokeColor=#9673a6;" parent="1" vertex="1">
                    <mxGeometry x="360" y="1120" width="280" height="30" as="geometry"/>
                </mxCell>
                <mxCell id="e9qLt4-oA66z_KBG-B5x-71" style="edgeStyle=orthogonalEdgeStyle;rounded=0;orthogonalLoop=1;jettySize=auto;html=1;exitX=1;exitY=0.5;exitDx=0;exitDy=0;entryX=0;entryY=0.5;entryDx=0;entryDy=0;fontSize=12;" parent="1" source="e9qLt4-oA66z_KBG-B5x-67" target="e9qLt4-oA66z_KBG-B5x-70" edge="1">
                    <mxGeometry relative="1" as="geometry"/>
                </mxCell>
                <mxCell id="e9qLt4-oA66z_KBG-B5x-67" value="Registrar en cada archivo .txt la jugada" style="rounded=0;whiteSpace=wrap;html=1;fontSize=12;align=left;fontStyle=2;fillColor=#e1d5e7;strokeColor=#9673a6;" parent="1" vertex="1">
                    <mxGeometry x="360" y="1165" width="280" height="30" as="geometry"/>
                </mxCell>
                <mxCell id="e9qLt4-oA66z_KBG-B5x-70" value="Permite ver el registro de las jugadas de los jugadores" style="rounded=0;whiteSpace=wrap;html=1;fontSize=12;align=left;fontStyle=2;fillColor=#e1d5e7;strokeColor=#9673a6;" parent="1" vertex="1">
                    <mxGeometry x="680" y="1165" width="280" height="30" as="geometry"/>
                </mxCell>
                <mxCell id="e9qLt4-oA66z_KBG-B5x-72" value="Etapa1" style="rounded=0;whiteSpace=wrap;html=1;fontSize=15;fillColor=#f5f5f5;strokeColor=#666666;fontColor=#333333;" parent="1" vertex="1">
                    <mxGeometry x="1160" y="480" width="120" height="40" as="geometry"/>
                </mxCell>
                <mxCell id="e9qLt4-oA66z_KBG-B5x-73" value="Etapa2" style="rounded=0;whiteSpace=wrap;html=1;fontSize=15;fillColor=#f5f5f5;strokeColor=#666666;fontColor=#333333;" parent="1" vertex="1">
                    <mxGeometry x="1160" y="640" width="120" height="40" as="geometry"/>
                </mxCell>
                <mxCell id="e9qLt4-oA66z_KBG-B5x-74" value="Etapa3" style="rounded=0;whiteSpace=wrap;html=1;fontSize=15;fillColor=#f5f5f5;strokeColor=#666666;fontColor=#333333;" parent="1" vertex="1">
                    <mxGeometry x="1160" y="800" width="120" height="40" as="geometry"/>
                </mxCell>
                <mxCell id="tGJlr8EwNElxzR4Li-g0-2" value="Máquina 3" style="swimlane;fontStyle=1;childLayout=stackLayout;horizontal=1;startSize=26;fillColor=#dae8fc;horizontalStack=0;resizeParent=1;resizeParentMax=0;resizeLast=0;collapsible=1;marginBottom=0;strokeColor=#6c8ebf;fontSize=15;" parent="1" vertex="1">
                    <mxGeometry x="520" y="40" width="120" height="104" as="geometry"/>
                </mxCell>
                <mxCell id="tGJlr8EwNElxzR4Li-g0-3" value="Pozo" style="text;strokeColor=none;fillColor=none;align=left;verticalAlign=top;spacingLeft=4;spacingRight=4;overflow=hidden;rotatable=0;points=[[0,0.5],[1,0.5]];portConstraint=eastwest;fontSize=13;" parent="tGJlr8EwNElxzR4Li-g0-2" vertex="1">
                    <mxGeometry y="26" width="120" height="26" as="geometry"/>
                </mxCell>
                <mxCell id="tGJlr8EwNElxzR4Li-g0-4" value="DataNode2" style="text;strokeColor=none;fillColor=none;align=left;verticalAlign=top;spacingLeft=4;spacingRight=4;overflow=hidden;rotatable=0;points=[[0,0.5],[1,0.5]];portConstraint=eastwest;fontSize=13;" parent="tGJlr8EwNElxzR4Li-g0-2" vertex="1">
                    <mxGeometry y="52" width="120" height="26" as="geometry"/>
                </mxCell>
                <mxCell id="tGJlr8EwNElxzR4Li-g0-6" value=" " style="text;strokeColor=none;fillColor=none;align=left;verticalAlign=top;spacingLeft=4;spacingRight=4;overflow=hidden;rotatable=0;points=[[0,0.5],[1,0.5]];portConstraint=eastwest;" parent="tGJlr8EwNElxzR4Li-g0-2" vertex="1">
                    <mxGeometry y="78" width="120" height="26" as="geometry"/>
                </mxCell>
                <mxCell id="tGJlr8EwNElxzR4Li-g0-7" value="Máquina 2" style="swimlane;fontStyle=1;childLayout=stackLayout;horizontal=1;startSize=26;fillColor=#dae8fc;horizontalStack=0;resizeParent=1;resizeParentMax=0;resizeLast=0;collapsible=1;marginBottom=0;strokeColor=#6c8ebf;fontSize=15;" parent="1" vertex="1">
                    <mxGeometry x="240" y="200" width="120" height="78" as="geometry"/>
                </mxCell>
                <mxCell id="tGJlr8EwNElxzR4Li-g0-8" value="NameNode" style="text;strokeColor=none;fillColor=none;align=left;verticalAlign=top;spacingLeft=4;spacingRight=4;overflow=hidden;rotatable=0;points=[[0,0.5],[1,0.5]];portConstraint=eastwest;fontSize=13;" parent="tGJlr8EwNElxzR4Li-g0-7" vertex="1">
                    <mxGeometry y="26" width="120" height="26" as="geometry"/>
                </mxCell>
                <mxCell id="tGJlr8EwNElxzR4Li-g0-10" value=" " style="text;strokeColor=none;fillColor=none;align=left;verticalAlign=top;spacingLeft=4;spacingRight=4;overflow=hidden;rotatable=0;points=[[0,0.5],[1,0.5]];portConstraint=eastwest;" parent="tGJlr8EwNElxzR4Li-g0-7" vertex="1">
                    <mxGeometry y="52" width="120" height="26" as="geometry"/>
                </mxCell>
                <mxCell id="tGJlr8EwNElxzR4Li-g0-11" value="Máquina 1" style="swimlane;fontStyle=1;childLayout=stackLayout;horizontal=1;startSize=26;fillColor=#dae8fc;horizontalStack=0;resizeParent=1;resizeParentMax=0;resizeLast=0;collapsible=1;marginBottom=0;strokeColor=#6c8ebf;fontSize=15;" parent="1" vertex="1">
                    <mxGeometry x="240" y="40" width="120" height="104" as="geometry"/>
                </mxCell>
                <mxCell id="tGJlr8EwNElxzR4Li-g0-12" value="Líder" style="text;strokeColor=none;fillColor=none;align=left;verticalAlign=top;spacingLeft=4;spacingRight=4;overflow=hidden;rotatable=0;points=[[0,0.5],[1,0.5]];portConstraint=eastwest;fontSize=13;" parent="tGJlr8EwNElxzR4Li-g0-11" vertex="1">
                    <mxGeometry y="26" width="120" height="26" as="geometry"/>
                </mxCell>
                <mxCell id="tGJlr8EwNElxzR4Li-g0-13" value="DataNode1" style="text;strokeColor=none;fillColor=none;align=left;verticalAlign=top;spacingLeft=4;spacingRight=4;overflow=hidden;rotatable=0;points=[[0,0.5],[1,0.5]];portConstraint=eastwest;fontSize=13;" parent="tGJlr8EwNElxzR4Li-g0-11" vertex="1">
                    <mxGeometry y="52" width="120" height="26" as="geometry"/>
                </mxCell>
                <mxCell id="tGJlr8EwNElxzR4Li-g0-14" value=" " style="text;strokeColor=none;fillColor=none;align=left;verticalAlign=top;spacingLeft=4;spacingRight=4;overflow=hidden;rotatable=0;points=[[0,0.5],[1,0.5]];portConstraint=eastwest;" parent="tGJlr8EwNElxzR4Li-g0-11" vertex="1">
                    <mxGeometry y="78" width="120" height="26" as="geometry"/>
                </mxCell>
                <mxCell id="tGJlr8EwNElxzR4Li-g0-15" value="Máquina 4" style="swimlane;fontStyle=1;childLayout=stackLayout;horizontal=1;startSize=26;fillColor=#dae8fc;horizontalStack=0;resizeParent=1;resizeParentMax=0;resizeLast=0;collapsible=1;marginBottom=0;strokeColor=#6c8ebf;fontSize=15;" parent="1" vertex="1">
                    <mxGeometry x="520" y="200" width="120" height="104" as="geometry"/>
                </mxCell>
                <mxCell id="tGJlr8EwNElxzR4Li-g0-16" value="DataNode3" style="text;strokeColor=none;fillColor=none;align=left;verticalAlign=top;spacingLeft=4;spacingRight=4;overflow=hidden;rotatable=0;points=[[0,0.5],[1,0.5]];portConstraint=eastwest;fontSize=13;" parent="tGJlr8EwNElxzR4Li-g0-15" vertex="1">
                    <mxGeometry y="26" width="120" height="26" as="geometry"/>
                </mxCell>
                <mxCell id="tGJlr8EwNElxzR4Li-g0-17" value=" " style="text;strokeColor=none;fillColor=none;align=left;verticalAlign=top;spacingLeft=4;spacingRight=4;overflow=hidden;rotatable=0;points=[[0,0.5],[1,0.5]];portConstraint=eastwest;" parent="tGJlr8EwNElxzR4Li-g0-15" vertex="1">
                    <mxGeometry y="52" width="120" height="26" as="geometry"/>
                </mxCell>
                <mxCell id="tGJlr8EwNElxzR4Li-g0-18" value=" " style="text;strokeColor=none;fillColor=none;align=left;verticalAlign=top;spacingLeft=4;spacingRight=4;overflow=hidden;rotatable=0;points=[[0,0.5],[1,0.5]];portConstraint=eastwest;" parent="tGJlr8EwNElxzR4Li-g0-15" vertex="1">
                    <mxGeometry y="78" width="120" height="26" as="geometry"/>
                </mxCell>
                <mxCell id="tGJlr8EwNElxzR4Li-g0-19" style="edgeStyle=orthogonalEdgeStyle;rounded=0;orthogonalLoop=1;jettySize=auto;html=1;exitX=0;exitY=0.5;exitDx=0;exitDy=0;entryX=1;entryY=0.5;entryDx=0;entryDy=0;fontSize=15;startArrow=classic;startFill=1;" parent="1" source="tGJlr8EwNElxzR4Li-g0-3" target="tGJlr8EwNElxzR4Li-g0-12" edge="1">
                    <mxGeometry relative="1" as="geometry">
                        <Array as="points">
                            <mxPoint x="460" y="79"/>
                            <mxPoint x="460" y="79"/>
                        </Array>
                    </mxGeometry>
                </mxCell>
            </root>
        </mxGraphModel>
    </diagram>
</mxfile>